<svg width="45" height="45" viewBox="0 0 45 45" fill="none" xmlns="http://www.w3.org/2000/svg">
<path fill-rule="evenodd" clip-rule="evenodd" d="M37.1101 10.1527C38.7227 10.5859 39.9984 11.8616 40.4316 13.4742C41.2259 16.4107 41.25 22.5002 41.25 22.5002C41.25 22.5002 41.25 28.6139 40.4557 31.5262C40.0225 33.1389 38.7468 34.4146 37.1341 34.8478C34.2218 35.6421 22.5 35.6421 22.5 35.6421C22.5 35.6421 10.7782 35.6421 7.86586 34.8478C6.25321 34.4146 4.97754 33.1389 4.54429 31.5262C3.75 28.5898 3.75 22.5002 3.75 22.5002C3.75 22.5002 3.75 16.4107 4.52022 13.4983C4.95347 11.8857 6.22914 10.61 7.84178 10.1768C10.7542 9.38246 22.4759 9.3584 22.4759 9.3584C22.4759 9.3584 34.1977 9.3584 37.1101 10.1527ZM28.4692 22.5003L18.7452 28.1325V16.868L28.4692 22.5003Z" fill="white"/>
</svg>
