<svg width="45" height="45" viewBox="0 0 45 45" fill="none" xmlns="http://www.w3.org/2000/svg">
<path d="M33.9667 11.2668C31.9467 9.9497 30.4887 7.84241 30.0339 5.38587C29.9357 4.85512 29.8817 4.30888 29.8817 3.75H23.4347L23.4243 29.5874C23.316 32.4808 20.9346 34.803 18.0153 34.803C17.108 34.803 16.2536 34.5761 15.5014 34.1803C13.7764 33.2725 12.5959 31.4644 12.5959 29.3837C12.5959 26.3953 15.0272 23.9641 18.0153 23.9641C18.5731 23.9641 19.1082 24.0561 19.6144 24.2146V17.6329C19.0906 17.5616 18.5583 17.517 18.0153 17.517C11.472 17.517 6.14893 22.8404 6.14893 29.3837C6.14893 33.3983 8.15471 36.951 11.2148 39.0993C13.1422 40.4525 15.4868 41.25 18.0153 41.25C24.5586 41.25 29.8817 35.9269 29.8817 29.3837V16.2819C32.4103 18.0968 35.5083 19.1663 38.8511 19.1663V12.7192C37.0504 12.7192 35.3732 12.1839 33.9667 11.2668Z" fill="white"/>
</svg>
