<svg width="45" height="45" viewBox="0 0 45 45" fill="none" xmlns="http://www.w3.org/2000/svg">
<path fill-rule="evenodd" clip-rule="evenodd" d="M22.5 5.625C17.9167 5.625 17.343 5.64413 15.543 5.72625C13.7464 5.80838 12.519 6.09413 11.4457 6.5115C10.3207 6.9345 9.30037 7.59825 8.45662 8.45775C7.5985 9.30053 6.93434 10.3202 6.51038 11.4457C6.09525 12.519 5.80838 13.7475 5.72625 15.5441C5.64525 17.343 5.625 17.9156 5.625 22.5C5.625 27.0844 5.64413 27.657 5.72625 29.457C5.80838 31.2536 6.09413 32.481 6.5115 33.5543C6.9345 34.6793 7.59825 35.6996 8.45775 36.5434C9.30055 37.4015 10.3202 38.0656 11.4457 38.4896C12.519 38.9059 13.7464 39.1916 15.543 39.2738C17.343 39.3559 17.9167 39.375 22.5 39.375C27.0833 39.375 27.657 39.3559 29.457 39.2738C31.2536 39.1916 32.481 38.9059 33.5543 38.4885C34.6793 38.0655 35.6996 37.4018 36.5434 36.5422C37.4015 35.6995 38.0657 34.6798 38.4896 33.5543C38.9059 32.481 39.1916 31.2536 39.2738 29.457C39.3559 27.657 39.375 27.0833 39.375 22.5C39.375 17.9167 39.3559 17.343 39.2738 15.543C39.1916 13.7464 38.9059 12.519 38.4885 11.4457C38.0648 10.3197 37.4007 9.29961 36.5422 8.45662C35.6995 7.5985 34.6798 6.93434 33.5543 6.51038C32.481 6.09525 31.2525 5.80838 29.4559 5.72625C27.657 5.64525 27.0844 5.625 22.5 5.625ZM22.5 8.66587C27.0056 8.66587 27.54 8.68275 29.3197 8.76375C30.9645 8.83912 31.8577 9.1125 32.4529 9.34537C33.2404 9.65025 33.8029 10.017 34.3935 10.6065C34.9841 11.1971 35.3498 11.7596 35.6546 12.5471C35.8864 13.1423 36.1609 14.0355 36.2362 15.6803C36.3172 17.46 36.3341 17.9944 36.3341 22.5C36.3341 27.0056 36.3172 27.54 36.2362 29.3197C36.1609 30.9645 35.8875 31.8577 35.6546 32.4529C35.3846 33.1859 34.9536 33.849 34.3935 34.3935C33.8491 34.9537 33.1859 35.3847 32.4529 35.6546C31.8577 35.8864 30.9645 36.1609 29.3197 36.2362C27.54 36.3172 27.0068 36.3341 22.5 36.3341C17.9932 36.3341 17.46 36.3172 15.6803 36.2362C14.0355 36.1609 13.1423 35.8875 12.5471 35.6546C11.8141 35.3846 11.151 34.9536 10.6065 34.3935C10.0464 33.8489 9.61552 33.1858 9.34537 32.4529C9.11362 31.8577 8.83912 30.9645 8.76375 29.3197C8.68275 27.54 8.66587 27.0056 8.66587 22.5C8.66587 17.9944 8.68275 17.46 8.76375 15.6803C8.83912 14.0355 9.1125 13.1423 9.34537 12.5471C9.65025 11.7596 10.017 11.1971 10.6065 10.6065C11.1509 10.0463 11.8141 9.61535 12.5471 9.34537C13.1423 9.11362 14.0355 8.83912 15.6803 8.76375C17.46 8.68275 17.9944 8.66587 22.5 8.66587Z" fill="white"/>
<path fill-rule="evenodd" clip-rule="evenodd" d="M22.5 28.1306C21.7606 28.1306 21.0284 27.985 20.3453 27.702C19.6622 27.419 19.0414 27.0043 18.5186 26.4814C17.9957 25.9586 17.581 25.3379 17.298 24.6547C17.0151 23.9716 16.8694 23.2394 16.8694 22.5C16.8694 21.7605 17.0151 21.0284 17.298 20.3452C17.581 19.6621 17.9957 19.0414 18.5186 18.5185C19.0414 17.9957 19.6622 17.5809 20.3453 17.298C21.0284 17.015 21.7606 16.8693 22.5 16.8693C23.9934 16.8693 25.4255 17.4626 26.4815 18.5185C27.5374 19.5745 28.1307 21.0066 28.1307 22.5C28.1307 23.9933 27.5374 25.4255 26.4815 26.4814C25.4255 27.5374 23.9934 28.1306 22.5 28.1306ZM22.5 13.8262C20.1996 13.8262 17.9934 14.7401 16.3668 16.3667C14.7401 17.9933 13.8263 20.1995 13.8263 22.5C13.8263 24.8004 14.7401 27.0066 16.3668 28.6332C17.9934 30.2599 20.1996 31.1737 22.5 31.1737C24.8005 31.1737 27.0067 30.2599 28.6333 28.6332C30.26 27.0066 31.1738 24.8004 31.1738 22.5C31.1738 20.1995 30.26 17.9933 28.6333 16.3667C27.0067 14.7401 24.8005 13.8262 22.5 13.8262ZM33.6972 13.6687C33.6972 14.2125 33.4811 14.734 33.0966 15.1185C32.7121 15.503 32.1906 15.719 31.6469 15.719C31.1031 15.719 30.5816 15.503 30.1971 15.1185C29.8126 14.734 29.5965 14.2125 29.5965 13.6687C29.5965 13.1249 29.8126 12.6034 30.1971 12.2189C30.5816 11.8344 31.1031 11.6184 31.6469 11.6184C32.1906 11.6184 32.7121 11.8344 33.0966 12.2189C33.4811 12.6034 33.6972 13.1249 33.6972 13.6687Z" fill="white"/>
</svg>
