<svg width="48" height="48" viewBox="0 0 48 48" fill="none" xmlns="http://www.w3.org/2000/svg">
<path d="M37.8617 11.283C35.3122 10.1132 32.5783 9.25131 29.7198 8.75769C29.6678 8.74816 29.6158 8.77197 29.589 8.81958C29.2374 9.44494 28.8479 10.2608 28.5752 10.902C25.5007 10.4417 22.442 10.4417 19.4305 10.902C19.1577 10.2465 18.7541 9.44494 18.401 8.81958C18.3741 8.77356 18.3221 8.74975 18.2701 8.75769C15.4132 9.24973 12.6793 10.1116 10.1282 11.283C10.1061 11.2925 10.0872 11.3084 10.0746 11.329C4.88899 19.0763 3.46842 26.6331 4.1653 34.0963C4.16845 34.1328 4.18895 34.1677 4.21733 34.1899C7.63868 36.7025 10.9528 38.2278 14.2055 39.2389C14.2575 39.2547 14.3127 39.2357 14.3458 39.1928C15.1152 38.1421 15.8011 37.0342 16.3891 35.8692C16.4238 35.8009 16.3907 35.72 16.3198 35.693C15.2319 35.2803 14.196 34.7772 13.1995 34.2058C13.1207 34.1598 13.1144 34.047 13.1869 33.9931C13.3966 33.8359 13.6064 33.6724 13.8066 33.5074C13.8428 33.4772 13.8933 33.4709 13.9359 33.4899C20.4821 36.4787 27.5692 36.4787 34.0383 33.4899C34.0808 33.4693 34.1313 33.4756 34.1691 33.5058C34.3694 33.6709 34.5791 33.8359 34.7904 33.9931C34.8629 34.047 34.8581 34.1598 34.7793 34.2058C33.7829 34.7883 32.747 35.2803 31.6575 35.6914C31.5866 35.7184 31.555 35.8009 31.5897 35.8692C32.1904 37.0326 32.8763 38.1405 33.6315 39.1913C33.663 39.2357 33.7198 39.2547 33.7718 39.2389C37.0402 38.2278 40.3544 36.7025 43.7757 34.1899C43.8057 34.1677 43.8246 34.1343 43.8278 34.0978C44.6618 25.4696 42.4308 17.9747 37.9137 11.3306C37.9026 11.3084 37.8838 11.2925 37.8617 11.283ZM17.3667 29.552C15.3958 29.552 13.7719 27.7426 13.7719 25.5204C13.7719 23.2983 15.3643 21.4889 17.3667 21.4889C19.3848 21.4889 20.993 23.3142 20.9615 25.5204C20.9615 27.7426 19.369 29.552 17.3667 29.552ZM30.6579 29.552C28.6871 29.552 27.0632 27.7426 27.0632 25.5204C27.0632 23.2983 28.6556 21.4889 30.6579 21.4889C32.6761 21.4889 34.2842 23.3142 34.2527 25.5204C34.2527 27.7426 32.6761 29.552 30.6579 29.552Z" fill="white"/>
</svg>
