<svg width="23" height="22" viewBox="0 0 23 22" fill="none" xmlns="http://www.w3.org/2000/svg">
<g id="Communication / Chat_Dots">
<path id="Vector" d="M5.36629 18.2603L6.82676 17.1427L6.83749 17.1349C7.14197 16.9019 7.29561 16.7843 7.46703 16.7005C7.62082 16.6254 7.78481 16.5706 7.95398 16.5374C8.14466 16.5 8.34328 16.5 8.74198 16.5H17.0613C18.1326 16.5 18.6689 16.5 19.0785 16.3004C19.4392 16.1246 19.7325 15.8439 19.9163 15.4989C20.125 15.1071 20.125 14.5947 20.125 13.57V6.59717C20.125 5.57242 20.125 5.05927 19.9163 4.66749C19.7325 4.32252 19.4386 4.04226 19.0779 3.86649C18.6679 3.66667 18.132 3.66667 17.0585 3.66667H5.94185C4.86842 3.66667 4.3313 3.66667 3.92131 3.86649C3.56066 4.04226 3.26766 4.32252 3.0839 4.66749C2.875 5.05966 2.875 5.57342 2.875 6.60018V17.1153C2.875 18.0922 2.875 18.5805 3.08435 18.8314C3.26643 19.0496 3.54242 19.1765 3.83427 19.1762C4.16985 19.1758 4.5688 18.8706 5.36629 18.2603Z" stroke="white" stroke-width="2" stroke-linecap="round" stroke-linejoin="round"/>
</g>
</svg>
